<mxfile host="Electron" modified="2024-01-09T03:17:03.773Z" agent="Mozilla/5.0 (X11; Linux x86_64) AppleWebKit/537.36 (KHTML, like Gecko) draw.io/21.6.5 Chrome/114.0.5735.243 Electron/25.3.1 Safari/537.36" etag="Zlau_ZFy75fYVfi5lLzJ" version="21.6.5" type="device">
  <diagram name="Page-1" id="ew7vi9b7o_5ddHdVxSJt">
    <mxGraphModel dx="-67" dy="478" grid="0" gridSize="10" guides="1" tooltips="1" connect="1" arrows="1" fold="1" page="1" pageScale="1" pageWidth="850" pageHeight="1100" math="0" shadow="0">
      <root>
        <mxCell id="0" />
        <mxCell id="1" parent="0" />
        <mxCell id="C9X9QNjV8dWVqkScu7Qu-121" value="" style="edgeStyle=orthogonalEdgeStyle;shape=connector;rounded=1;orthogonalLoop=1;jettySize=auto;html=1;labelBackgroundColor=default;strokeColor=#666666;strokeWidth=3;fontFamily=Helvetica;fontSize=12;fontColor=#666666;endArrow=openThin;fillColor=#ffffff;arcSize=50;fontStyle=0;startArrow=none;startFill=0;endFill=0;" parent="1" source="C9X9QNjV8dWVqkScu7Qu-122" target="C9X9QNjV8dWVqkScu7Qu-120" edge="1">
          <mxGeometry relative="1" as="geometry">
            <Array as="points">
              <mxPoint x="1120" y="112" />
            </Array>
          </mxGeometry>
        </mxCell>
        <mxCell id="AJnUu_ocKBxVkyiGc7EY-5" style="edgeStyle=orthogonalEdgeStyle;shape=connector;curved=0;rounded=1;orthogonalLoop=1;jettySize=auto;html=1;labelBackgroundColor=default;strokeColor=#666666;strokeWidth=3;fontFamily=Helvetica;fontSize=12;fontColor=#666666;startArrow=none;startFill=0;endArrow=openThin;endFill=0;" edge="1" parent="1" source="C9X9QNjV8dWVqkScu7Qu-120" target="C9X9QNjV8dWVqkScu7Qu-126">
          <mxGeometry relative="1" as="geometry" />
        </mxCell>
        <mxCell id="C9X9QNjV8dWVqkScu7Qu-120" value="Parse Location&lt;br&gt;Information" style="rounded=1;whiteSpace=wrap;html=1;absoluteArcSize=1;arcSize=50;strokeWidth=3;strokeColor=#666666;fontFamily=Helvetica;fontSize=12;fontColor=#666666;fillColor=#ffffff;fontStyle=0;labelBackgroundColor=none;" parent="1" vertex="1">
          <mxGeometry x="1081" y="90" width="110" height="40" as="geometry" />
        </mxCell>
        <mxCell id="qRkGIz5B6cfkXNClZsk5-13" style="edgeStyle=orthogonalEdgeStyle;shape=connector;rounded=1;orthogonalLoop=1;jettySize=auto;html=1;labelBackgroundColor=default;strokeColor=#666666;strokeWidth=3;fontFamily=Helvetica;fontSize=12;fontColor=#666666;endArrow=openThin;fillColor=#ffffff;startArrow=none;startFill=0;endFill=0;" parent="1" source="C9X9QNjV8dWVqkScu7Qu-122" target="C9X9QNjV8dWVqkScu7Qu-140" edge="1">
          <mxGeometry relative="1" as="geometry">
            <Array as="points" />
          </mxGeometry>
        </mxCell>
        <mxCell id="C9X9QNjV8dWVqkScu7Qu-122" value="Locations &lt;br&gt;Exists?" style="strokeWidth=3;html=1;shape=mxgraph.flowchart.decision;whiteSpace=wrap;strokeColor=#666666;fontFamily=Helvetica;fontSize=12;fontColor=#666666;fillColor=#ffffff;rounded=1;arcSize=50;fontStyle=0;labelBackgroundColor=none;" parent="1" vertex="1">
          <mxGeometry x="960" y="82" width="100" height="60" as="geometry" />
        </mxCell>
        <mxCell id="C9X9QNjV8dWVqkScu7Qu-123" value="" style="edgeStyle=orthogonalEdgeStyle;shape=connector;rounded=1;orthogonalLoop=1;jettySize=auto;html=1;labelBackgroundColor=default;strokeColor=#666666;strokeWidth=3;fontFamily=Helvetica;fontSize=12;fontColor=#666666;endArrow=openThin;fillColor=#ffffff;arcSize=50;fontStyle=0;startArrow=none;startFill=0;endFill=0;" parent="1" source="C9X9QNjV8dWVqkScu7Qu-124" target="C9X9QNjV8dWVqkScu7Qu-122" edge="1">
          <mxGeometry relative="1" as="geometry">
            <Array as="points">
              <mxPoint x="960" y="110" />
              <mxPoint x="960" y="110" />
            </Array>
          </mxGeometry>
        </mxCell>
        <mxCell id="C9X9QNjV8dWVqkScu7Qu-124" value="Start" style="strokeWidth=3;html=1;shape=mxgraph.flowchart.start_2;whiteSpace=wrap;labelBackgroundColor=none;fillColor=#ffffff;strokeColor=#666666;fontColor=#666666;fontSize=12;fontStyle=0;rounded=1;arcSize=50;" parent="1" vertex="1">
          <mxGeometry x="989" y="20" width="40" height="40" as="geometry" />
        </mxCell>
        <mxCell id="AJnUu_ocKBxVkyiGc7EY-4" style="edgeStyle=orthogonalEdgeStyle;shape=connector;curved=0;rounded=1;orthogonalLoop=1;jettySize=auto;html=1;labelBackgroundColor=default;strokeColor=#666666;strokeWidth=3;fontFamily=Helvetica;fontSize=12;fontColor=#666666;startArrow=none;startFill=0;endArrow=openThin;endFill=0;" edge="1" parent="1" source="C9X9QNjV8dWVqkScu7Qu-126" target="C9X9QNjV8dWVqkScu7Qu-140">
          <mxGeometry relative="1" as="geometry" />
        </mxCell>
        <mxCell id="AJnUu_ocKBxVkyiGc7EY-13" style="edgeStyle=orthogonalEdgeStyle;shape=connector;curved=0;rounded=1;orthogonalLoop=1;jettySize=auto;html=1;exitX=0.5;exitY=1;exitDx=0;exitDy=0;exitPerimeter=0;labelBackgroundColor=default;strokeColor=#666666;strokeWidth=3;fontFamily=Helvetica;fontSize=12;fontColor=#666666;startArrow=none;startFill=0;endArrow=openThin;endFill=0;" edge="1" parent="1" source="C9X9QNjV8dWVqkScu7Qu-126" target="AJnUu_ocKBxVkyiGc7EY-6">
          <mxGeometry relative="1" as="geometry" />
        </mxCell>
        <mxCell id="AJnUu_ocKBxVkyiGc7EY-14" style="edgeStyle=orthogonalEdgeStyle;shape=connector;curved=0;rounded=1;orthogonalLoop=1;jettySize=auto;html=1;labelBackgroundColor=default;strokeColor=#666666;strokeWidth=3;fontFamily=Helvetica;fontSize=12;fontColor=#666666;startArrow=none;startFill=0;endArrow=openThin;endFill=0;" edge="1" parent="1" source="C9X9QNjV8dWVqkScu7Qu-126" target="C9X9QNjV8dWVqkScu7Qu-130">
          <mxGeometry relative="1" as="geometry" />
        </mxCell>
        <mxCell id="C9X9QNjV8dWVqkScu7Qu-126" value="&lt;font style=&quot;font-size: 12px;&quot;&gt;Data Req or&lt;br&gt;Locations&lt;br&gt;&lt;/font&gt;" style="strokeWidth=3;html=1;shape=mxgraph.flowchart.decision;whiteSpace=wrap;strokeColor=#666666;fontFamily=Helvetica;fontSize=12;fontColor=#666666;fillColor=#ffffff;rounded=1;arcSize=50;fontStyle=0;labelBackgroundColor=none;" parent="1" vertex="1">
          <mxGeometry x="1076" y="152" width="120" height="60" as="geometry" />
        </mxCell>
        <mxCell id="AJnUu_ocKBxVkyiGc7EY-15" style="edgeStyle=orthogonalEdgeStyle;shape=connector;curved=0;rounded=1;orthogonalLoop=1;jettySize=auto;html=1;entryX=0;entryY=0.5;entryDx=0;entryDy=0;entryPerimeter=0;labelBackgroundColor=default;strokeColor=#666666;strokeWidth=3;fontFamily=Helvetica;fontSize=12;fontColor=#666666;startArrow=none;startFill=0;endArrow=openThin;endFill=0;" edge="1" parent="1" source="C9X9QNjV8dWVqkScu7Qu-130" target="C9X9QNjV8dWVqkScu7Qu-138">
          <mxGeometry relative="1" as="geometry" />
        </mxCell>
        <mxCell id="C9X9QNjV8dWVqkScu7Qu-130" value="Parse Child Location&lt;br&gt;Information,&lt;br&gt;append to &lt;br&gt;parent" style="rounded=1;whiteSpace=wrap;html=1;absoluteArcSize=1;arcSize=50;strokeWidth=3;strokeColor=#666666;fontFamily=Helvetica;fontSize=12;fontColor=#666666;fillColor=#ffffff;fontStyle=0;labelBackgroundColor=none;" parent="1" vertex="1">
          <mxGeometry x="1221" y="142" width="98" height="80" as="geometry" />
        </mxCell>
        <mxCell id="C9X9QNjV8dWVqkScu7Qu-147" style="edgeStyle=orthogonalEdgeStyle;shape=connector;rounded=1;orthogonalLoop=1;jettySize=auto;html=1;labelBackgroundColor=default;strokeColor=#666666;strokeWidth=3;fontFamily=Helvetica;fontSize=12;fontColor=#666666;endArrow=openThin;fillColor=#ffffff;arcSize=50;fontStyle=0;startArrow=none;startFill=0;endFill=0;" parent="1" source="C9X9QNjV8dWVqkScu7Qu-138" target="C9X9QNjV8dWVqkScu7Qu-145" edge="1">
          <mxGeometry relative="1" as="geometry">
            <Array as="points">
              <mxPoint x="1458" y="277" />
              <mxPoint x="1458" y="277" />
            </Array>
          </mxGeometry>
        </mxCell>
        <mxCell id="AJnUu_ocKBxVkyiGc7EY-16" style="edgeStyle=orthogonalEdgeStyle;shape=connector;curved=0;rounded=1;orthogonalLoop=1;jettySize=auto;html=1;exitX=0.5;exitY=0;exitDx=0;exitDy=0;exitPerimeter=0;entryX=1;entryY=0.5;entryDx=0;entryDy=0;labelBackgroundColor=default;strokeColor=#666666;strokeWidth=3;fontFamily=Helvetica;fontSize=12;fontColor=#666666;startArrow=none;startFill=0;endArrow=openThin;endFill=0;" edge="1" parent="1" source="C9X9QNjV8dWVqkScu7Qu-138" target="C9X9QNjV8dWVqkScu7Qu-120">
          <mxGeometry relative="1" as="geometry" />
        </mxCell>
        <mxCell id="C9X9QNjV8dWVqkScu7Qu-138" value="Locations &lt;br&gt;left to parse" style="strokeWidth=3;html=1;shape=mxgraph.flowchart.decision;whiteSpace=wrap;strokeColor=#666666;fontFamily=Helvetica;fontSize=12;fontColor=#666666;fillColor=#ffffff;rounded=1;arcSize=50;fontStyle=0;labelBackgroundColor=none;spacingTop=-2;" parent="1" vertex="1">
          <mxGeometry x="1290" y="249" width="120" height="60" as="geometry" />
        </mxCell>
        <mxCell id="C9X9QNjV8dWVqkScu7Qu-140" value="Error, invalid config" style="strokeWidth=3;html=1;shape=mxgraph.flowchart.terminator;whiteSpace=wrap;strokeColor=#666666;fontFamily=Helvetica;fontSize=12;fontColor=#666666;fillColor=#ffffff;rounded=1;arcSize=50;fontStyle=0;labelBackgroundColor=none;" parent="1" vertex="1">
          <mxGeometry x="970.5" y="162" width="79" height="40" as="geometry" />
        </mxCell>
        <mxCell id="C9X9QNjV8dWVqkScu7Qu-145" value="End" style="strokeWidth=3;html=1;shape=mxgraph.flowchart.start_2;whiteSpace=wrap;labelBackgroundColor=none;fillColor=#ffffff;strokeColor=#666666;fontColor=#666666;fontSize=12;fontStyle=0;rounded=1;arcSize=50;" parent="1" vertex="1">
          <mxGeometry x="1439" y="259" width="40" height="40" as="geometry" />
        </mxCell>
        <mxCell id="C9X9QNjV8dWVqkScu7Qu-149" value="Yes" style="edgeLabel;html=1;align=center;verticalAlign=middle;resizable=0;points=[];fontSize=12;fontFamily=Helvetica;fontColor=#666666;labelBackgroundColor=none;fillColor=#ffffff;strokeColor=#666666;rounded=1;arcSize=50;strokeWidth=3;fontStyle=0;" parent="1" vertex="1" connectable="0">
          <mxGeometry x="1365.0033333333333" y="245" as="geometry">
            <mxPoint x="-2" y="-1" as="offset" />
          </mxGeometry>
        </mxCell>
        <mxCell id="C9X9QNjV8dWVqkScu7Qu-150" value="No" style="edgeLabel;html=1;align=center;verticalAlign=middle;resizable=0;points=[];fontSize=12;fontFamily=Helvetica;fontColor=#666666;labelBackgroundColor=none;fillColor=#ffffff;strokeColor=#666666;rounded=1;arcSize=50;strokeWidth=3;fontStyle=0;" parent="1" vertex="1" connectable="0">
          <mxGeometry x="1420.0033333333333" y="266" as="geometry">
            <mxPoint x="-2" y="-1" as="offset" />
          </mxGeometry>
        </mxCell>
        <mxCell id="C9X9QNjV8dWVqkScu7Qu-151" value="Locations" style="edgeLabel;html=1;align=center;verticalAlign=middle;resizable=0;points=[];fontSize=12;fontFamily=Helvetica;fontColor=#666666;labelBackgroundColor=none;fillColor=#ffffff;strokeColor=#666666;rounded=1;arcSize=50;strokeWidth=3;fontStyle=0;" parent="1" vertex="1" connectable="0">
          <mxGeometry x="1196.0033333333333" y="159" as="geometry">
            <mxPoint x="-4" y="-1" as="offset" />
          </mxGeometry>
        </mxCell>
        <mxCell id="qRkGIz5B6cfkXNClZsk5-14" value="Yes" style="edgeLabel;html=1;align=center;verticalAlign=middle;resizable=0;points=[];fontSize=12;fontFamily=Helvetica;fontColor=#666666;labelBackgroundColor=none;fillColor=#ffffff;strokeColor=#666666;rounded=1;arcSize=50;strokeWidth=3;fontStyle=0;" parent="1" vertex="1" connectable="0">
          <mxGeometry x="1060.0033333333333" y="92" as="geometry">
            <mxPoint x="-4" y="-1" as="offset" />
          </mxGeometry>
        </mxCell>
        <mxCell id="AJnUu_ocKBxVkyiGc7EY-2" value="None, or both" style="text;html=1;strokeColor=none;fillColor=none;align=center;verticalAlign=middle;whiteSpace=wrap;rounded=0;fontSize=12;fontFamily=Helvetica;fontColor=#666666;" vertex="1" parent="1">
          <mxGeometry x="1043" y="147" width="60" height="30" as="geometry" />
        </mxCell>
        <mxCell id="AJnUu_ocKBxVkyiGc7EY-9" style="edgeStyle=orthogonalEdgeStyle;shape=connector;curved=0;rounded=1;orthogonalLoop=1;jettySize=auto;html=1;entryX=0;entryY=0.5;entryDx=0;entryDy=0;entryPerimeter=0;labelBackgroundColor=default;strokeColor=#666666;strokeWidth=3;fontFamily=Helvetica;fontSize=12;fontColor=#666666;startArrow=none;startFill=0;endArrow=openThin;endFill=0;" edge="1" parent="1" source="AJnUu_ocKBxVkyiGc7EY-6" target="C9X9QNjV8dWVqkScu7Qu-138">
          <mxGeometry relative="1" as="geometry" />
        </mxCell>
        <mxCell id="AJnUu_ocKBxVkyiGc7EY-6" value="Parse Data&lt;br&gt;Requirement&lt;br&gt;Information,&lt;br&gt;append to &lt;br&gt;Location" style="rounded=1;whiteSpace=wrap;html=1;absoluteArcSize=1;arcSize=50;strokeWidth=3;strokeColor=#666666;fontFamily=Helvetica;fontSize=12;fontColor=#666666;fillColor=#ffffff;fontStyle=0;labelBackgroundColor=none;" vertex="1" parent="1">
          <mxGeometry x="1087" y="239" width="98" height="80" as="geometry" />
        </mxCell>
        <mxCell id="AJnUu_ocKBxVkyiGc7EY-12" value="Data&lt;br&gt;Requirement" style="edgeLabel;html=1;align=right;verticalAlign=middle;resizable=0;points=[];fontSize=12;fontFamily=Helvetica;fontColor=#666666;labelBackgroundColor=none;fillColor=#ffffff;strokeColor=#666666;rounded=1;arcSize=50;strokeWidth=3;fontStyle=0;" vertex="1" connectable="0" parent="1">
          <mxGeometry x="1127.0033333333333" y="221" as="geometry">
            <mxPoint x="-4" y="-1" as="offset" />
          </mxGeometry>
        </mxCell>
        <mxCell id="AJnUu_ocKBxVkyiGc7EY-17" value="No" style="edgeLabel;html=1;align=center;verticalAlign=middle;resizable=0;points=[];fontSize=12;fontFamily=Helvetica;fontColor=#666666;labelBackgroundColor=none;fillColor=#ffffff;strokeColor=#666666;rounded=1;arcSize=50;strokeWidth=3;fontStyle=0;" vertex="1" connectable="0" parent="1">
          <mxGeometry x="995.0033333333333" y="144" as="geometry">
            <mxPoint x="-4" y="-1" as="offset" />
          </mxGeometry>
        </mxCell>
      </root>
    </mxGraphModel>
  </diagram>
</mxfile>
